<svg xmlns="http://www.w3.org/2000/svg" xmlns:xlink="http://www.w3.org/1999/xlink" width="1792px" height="1792px" viewBox="0 0 1792 1792"><path class="st0" d="M1664,416v960c0,79.3-28.2,147.2-84.5,203.5c-56.3,56.3-124.2,84.5-203.5,84.5H416 c-79.3,0-147.2-28.2-203.5-84.5c-56.3-56.3-84.5-124.2-84.5-203.5V416c0-79.3,28.2-147.2,84.5-203.5C268.8,156.2,336.7,128,416,128 h960c79.3,0,147.2,28.2,203.5,84.5C1635.8,268.8,1664,336.7,1664,416z M1491.5,1426V778h-135c13.3,42,20,85.7,20,131 c0,84-21.3,161.5-64,232.5c-42.7,71-100.7,127.2-174,168.5c-73.3,41.3-153.3,62-240,62c-131.3,0-243.7-45.2-337-135.5 c-93.3-90.3-140-199.5-140-327.5c0-45.3,6.7-89,20-131h-141v648c0,17.3,5.8,31.8,17.5,43.5c11.7,11.7,26.2,17.5,43.5,17.5h1069 c16.7,0,31-5.8,43-17.5C1485.5,1457.8,1491.5,1443.3,1491.5,1426z M1207.5,893c0-82.7-30.2-153.2-90.5-211.5 c-60.3-58.3-133.2-87.5-218.5-87.5c-84.7,0-157.2,29.2-217.5,87.5c-60.3,58.3-90.5,128.8-90.5,211.5c0,82.7,30.2,153.2,90.5,211.5 c60.3,58.3,132.8,87.5,217.5,87.5c85.3,0,158.2-29.2,218.5-87.5C1177.3,1046.2,1207.5,975.7,1207.5,893z M1491.5,533V368 c0-18.7-6.7-34.8-20-48.5c-13.3-13.7-29.7-20.5-49-20.5h-174c-19.3,0-35.7,6.8-49,20.5c-13.3,13.7-20,29.8-20,48.5v165 c0,19.3,6.7,35.7,20,49c13.3,13.3,29.7,20,49,20h174c19.3,0,35.7-6.7,49-20C1484.8,568.7,1491.5,552.3,1491.5,533z"/></svg>
